<?xml version="1.0" encoding="UTF-8"?>
<!DOCTYPE svg PUBLIC "-//W3C//DTD SVG 1.1//EN" "http://www.w3.org/Graphics/SVG/1.1/DTD/svg11.dtd">
<svg xmlns="http://www.w3.org/2000/svg" version="1.1" width="540px" height="360px" style="shape-rendering:geometricPrecision; text-rendering:geometricPrecision; image-rendering:optimizeQuality; fill-rule:evenodd; clip-rule:evenodd" xmlns:xlink="http://www.w3.org/1999/xlink">
<g><path style="opacity:1" fill="#fefefe" d="M -0.5,-0.5 C 179.5,-0.5 359.5,-0.5 539.5,-0.5C 539.5,119.5 539.5,239.5 539.5,359.5C 359.5,359.5 179.5,359.5 -0.5,359.5C -0.5,239.5 -0.5,119.5 -0.5,-0.5 Z"/></g>
<g><path style="opacity:1" fill="#1d1d1d" d="M 213.5,303.5 C 230.368,281.489 229.368,260.322 210.5,240C 207.93,237.913 205.263,236.08 202.5,234.5C 213.057,229.553 223.391,224.053 233.5,218C 235.617,216.269 237.117,214.102 238,211.5C 238.667,206.833 238.667,202.167 238,197.5C 232.148,194.141 228.482,189.141 227,182.5C 224.475,175.355 223.475,168.022 224,160.5C 224.85,158.99 225.683,157.49 226.5,156C 222.882,143.85 222.715,131.683 226,119.5C 234.509,100.827 249.009,92.3272 269.5,94C 278.787,96.3206 287.787,99.654 296.5,104C 305.11,110.954 310.943,119.787 314,130.5C 314.07,144.037 315.07,157.37 317,170.5C 315.317,180.872 310.317,189.205 302,195.5C 299.694,204.71 301.861,212.544 308.5,219C 318.798,223.993 329.132,228.993 339.5,234C 347.266,238.768 354.099,244.601 360,251.5C 362.455,255.531 364.121,259.864 365,264.5C 392.281,232.39 402.615,195.39 396,153.5C 385.4,107.564 358.233,75.7308 314.5,58C 258.513,40.1203 210.68,52.6203 171,95.5C 136.658,139.915 131.491,187.582 155.5,238.5C 153.5,240.167 151.5,241.833 149.5,243.5C 122.281,188.407 127.781,136.741 166,88.5C 208.072,44.4398 258.239,31.6065 316.5,50C 367.701,70.8653 397.534,108.699 406,163.5C 409.341,228.35 382.174,275.183 324.5,304C 287.333,319.438 250.333,319.271 213.5,303.5 Z"/></g>
<g><path style="opacity:1" fill="#fcfdfd" d="M 202.5,234.5 C 186.054,226.868 170.387,228.201 155.5,238.5C 131.491,187.582 136.658,139.915 171,95.5C 210.68,52.6203 258.513,40.1203 314.5,58C 358.233,75.7308 385.4,107.564 396,153.5C 402.615,195.39 392.281,232.39 365,264.5C 364.121,259.864 362.455,255.531 360,251.5C 354.099,244.601 347.266,238.768 339.5,234C 329.132,228.993 318.798,223.993 308.5,219C 301.861,212.544 299.694,204.71 302,195.5C 310.317,189.205 315.317,180.872 317,170.5C 315.07,157.37 314.07,144.037 314,130.5C 310.943,119.787 305.11,110.954 296.5,104C 287.787,99.654 278.787,96.3206 269.5,94C 249.009,92.3272 234.509,100.827 226,119.5C 222.715,131.683 222.882,143.85 226.5,156C 225.683,157.49 224.85,158.99 224,160.5C 223.475,168.022 224.475,175.355 227,182.5C 228.482,189.141 232.148,194.141 238,197.5C 238.667,202.167 238.667,206.833 238,211.5C 237.117,214.102 235.617,216.269 233.5,218C 223.391,224.053 213.057,229.553 202.5,234.5 Z"/></g>
<g><path style="opacity:1" fill="#e6e6e6" d="M 238.5,122.5 C 241.596,121.907 243.929,122.907 245.5,125.5C 251.986,126.897 258.486,128.231 265,129.5C 267.853,126.908 270.686,126.908 273.5,129.5C 279.486,128.338 285.486,127.171 291.5,126C 293.116,125.385 294.449,124.385 295.5,123C 301.794,122.458 303.127,124.958 299.5,130.5C 300.986,135.075 302.152,139.741 303,144.5C 305.053,145.267 306.553,146.6 307.5,148.5C 304.996,150.894 303.496,153.894 303,157.5C 301.001,166.139 300.168,174.806 300.5,183.5C 295.581,183.419 290.914,184.919 286.5,188C 282.5,190.333 278.5,192.667 274.5,195C 271.167,202.333 267.833,202.333 264.5,195C 258.003,191.586 251.67,187.919 245.5,184C 243.189,184.155 240.856,184.155 238.5,184C 239.028,173.949 238.028,163.949 235.5,154C 230.004,150.5 230.171,147.333 236,144.5C 236.754,139.57 237.921,134.737 239.5,130C 237.46,127.688 237.127,125.188 238.5,122.5 Z"/></g>
<g><path style="opacity:1" fill="#1d1d1d" d="M 239.5,150.5 C 248.109,151.827 256.776,152.493 265.5,152.5C 265.657,153.873 265.49,155.207 265,156.5C 261.796,159.369 258.963,162.535 256.5,166C 254.421,166.808 252.421,166.641 250.5,165.5C 247.236,161.313 243.736,157.313 240,153.5C 239.517,152.552 239.351,151.552 239.5,150.5 Z"/></g>
<g><path style="opacity:1" fill="#1f1f1f" d="M 291.5,150.5 C 294.247,150.187 296.914,150.52 299.5,151.5C 296.163,157.834 291.496,162.834 285.5,166.5C 280.975,163.814 277.141,160.147 274,155.5C 273.517,154.552 273.351,153.552 273.5,152.5C 279.699,152.348 285.699,151.682 291.5,150.5 Z"/></g>
<g><path style="opacity:1" fill="#1d1d1d" d="M 287.5,128.5 C 290.93,128.107 294.096,128.773 297,130.5C 298.659,135.307 300.159,140.14 301.5,145C 300.229,147.329 298.229,148.495 295.5,148.5C 287.84,149.5 280.173,150 272.5,150C 272,149.5 271.5,149 271,148.5C 270.333,144.167 270.333,139.833 271,135.5C 272.34,134.132 273.674,132.799 275,131.5C 279.269,130.355 283.436,129.355 287.5,128.5 Z"/></g>
<g><path style="opacity:1" fill="#1d1d1d" d="M 244.5,128.5 C 251.645,129.036 258.645,130.369 265.5,132.5C 267.987,135.112 268.987,138.279 268.5,142C 269.333,148.5 266.5,151.333 260,150.5C 253.034,150.264 246.2,149.264 239.5,147.5C 238.833,146.5 238.167,145.5 237.5,144.5C 238.992,139.53 240.326,134.53 241.5,129.5C 242.791,129.737 243.791,129.404 244.5,128.5 Z"/></g>
<g><path style="opacity:1" fill="#13c0fa" d="M 311.5,83.5 C 332.14,79.6379 339.807,87.8046 334.5,108C 332.888,108.72 331.388,108.554 330,107.5C 329.667,102.5 329.333,97.5 329,92.5C 328.097,91.2986 326.931,90.4652 325.5,90C 320.798,89.8283 316.132,89.3283 311.5,88.5C 310.185,86.8014 310.185,85.1347 311.5,83.5 Z"/></g>
<g><path style="opacity:1" fill="#16bffa" d="M 210.5,83.5 C 216.176,83.3339 221.843,83.5006 227.5,84C 228.833,85.6667 228.833,87.3333 227.5,89C 222.5,89.3333 217.5,89.6667 212.5,90C 211.667,90.8333 210.833,91.6667 210,92.5C 209.667,97.5 209.333,102.5 209,107.5C 207.333,108.833 205.667,108.833 204,107.5C 203.333,101.5 203.333,95.5 204,89.5C 205.436,86.5581 207.603,84.5581 210.5,83.5 Z"/></g>
<g><path style="opacity:1" fill="#1e1e1e" d="M 300.5,153.5 C 301.097,153.735 301.43,154.235 301.5,155C 299.691,161.043 298.525,167.21 298,173.5C 297.804,175.286 296.971,176.619 295.5,177.5C 293.833,176.167 292.167,174.833 290.5,173.5C 289.359,171.579 289.192,169.579 290,167.5C 293.752,162.982 297.252,158.316 300.5,153.5 Z"/></g>
<g><path style="opacity:1" fill="#1e1e1e" d="M 238.5,155.5 C 241.882,158.567 245.048,161.901 248,165.5C 250.932,172.214 248.765,175.881 241.5,176.5C 240.034,169.574 239.034,162.574 238.5,155.5 Z"/></g>
<g><path style="opacity:1" fill="#1e1e1e" d="M 266.5,156.5 C 267.829,162.128 268.496,168.128 268.5,174.5C 268.333,180.5 268.167,186.5 268,192.5C 264.167,186.167 260.333,179.833 256.5,173.5C 257.189,171.556 257.689,169.556 258,167.5C 261.073,163.939 263.906,160.272 266.5,156.5 Z"/></g>
<g><path style="opacity:1" fill="#1e1e1e" d="M 270.5,155.5 C 276.518,160.179 280.518,166.179 282.5,173.5C 278.667,179.833 274.833,186.167 271,192.5C 270.5,180.171 270.333,167.838 270.5,155.5 Z"/></g>
<g><path style="opacity:1" fill="#202020" d="M 284.5,174.5 C 288.35,174.178 291.517,175.511 294,178.5C 294.667,179.5 294.667,180.5 294,181.5C 287.38,185.725 280.547,189.225 273.5,192C 277.303,186.223 280.969,180.389 284.5,174.5 Z"/></g>
<g><path style="opacity:1" fill="#202020" d="M 250.5,174.5 C 252.722,174.178 254.556,174.845 256,176.5C 259.167,181.667 262.333,186.833 265.5,192C 258.453,189.225 251.62,185.725 245,181.5C 244.333,180.5 244.333,179.5 245,178.5C 247.015,177.303 248.849,175.97 250.5,174.5 Z"/></g>
<g><path style="opacity:1" fill="#15c0fb" d="M 330.5,190.5 C 332.144,190.286 333.644,190.62 335,191.5C 339.833,212 332,219.833 311.5,215C 310.167,213.333 310.167,211.667 311.5,210C 316.833,209.667 322.167,209.333 327.5,209C 328,208.5 328.5,208 329,207.5C 329.212,201.752 329.712,196.085 330.5,190.5 Z"/></g>
<g><path style="opacity:1" fill="#17c0fb" d="M 204.5,190.5 C 205.93,190.421 207.264,190.754 208.5,191.5C 209.167,196.833 209.833,202.167 210.5,207.5C 211.308,207.808 211.975,208.308 212.5,209C 217.5,209.333 222.5,209.667 227.5,210C 228.833,211.667 228.833,213.333 227.5,215C 206.374,219.609 198.707,211.442 204.5,190.5 Z"/></g>
<g><path style="opacity:1" fill="#0ebefb" d="M 202.5,234.5 C 205.263,236.08 207.93,237.913 210.5,240C 229.368,260.322 230.368,281.489 213.5,303.5C 194.147,319.796 174.147,320.63 153.5,306C 139.453,292.45 135.287,276.284 141,257.5C 143.091,252.306 145.924,247.639 149.5,243.5C 151.5,241.833 153.5,240.167 155.5,238.5C 170.387,228.201 186.054,226.868 202.5,234.5 Z"/></g>
<g><path style="opacity:1" fill="#f8fbfa" d="M 202.5,256.5 C 204.463,257.96 206.296,259.627 208,261.5C 208.315,262.908 207.982,264.241 207,265.5C 196.317,275.684 185.484,285.684 174.5,295.5C 168.167,289.833 162.167,283.833 156.5,277.5C 158.149,275.35 159.982,273.35 162,271.5C 166.015,275.682 170.182,279.682 174.5,283.5C 184.488,275.179 193.821,266.179 202.5,256.5 Z"/></g>
</svg>
